<svg id="レイヤー_1" data-name="レイヤー 1" xmlns="http://www.w3.org/2000/svg" viewBox="0 0 512 512"><defs><style>.cls-1{fill:#fff;}</style></defs><title>nume-white</title><path class="cls-1" d="M475.15,425c-22.89.22-34.36-15.41-35.07-32.49-1.46-34.89-2.31-69.81-3.28-104.73-.39-14-.07-28.07-4.34-41.52-2.12-6.66-5-13.46-9.14-19-5.56-7.45-14.51-9.48-23.49-10.16-4.05-.31-8.14-.06-12.11-.06-.93-6.46-1.55-12.67-2.76-18.77-2.15-10.76-6.75-20.5-12.85-29.62-4.59-6.84-11.11-7.84-18.41-6.77-7.46,1.09-12.49,5.28-15,12.39-.4,1.12-.72,2.26-1.11,3.5H322.91c1.54-11.53,5.66-21.25,17-27.5-27.79-12.75-43.22-33.51-44-64,.33.56.78,1.24,1.14,2s.83,1.74,1.18,2.63c7,17.56,19.14,30.47,35.75,39.14,7.34,3.83,15,7,22.56,10.45,2,.9,4,1.73,5.93,2.68,5.28,2.57,10.58,5.13,15.82,7.8,7.83,4,12.16,10.8,14.46,19s4.31,16.5,6.27,24.8a81.82,81.82,0,0,1,1.12,8.58c1.51.14,3,.37,4.56.41,16.9.45,28.05,9.85,35.66,23.85,6.26,11.52,8.46,24.37,8.89,37.3.84,25.16,1,50.35,1.54,75.52.36,15.29.86,30.59,1.6,45.86.71,14.61,6.47,26.76,18.58,35.49C472.21,422.57,473.39,423.57,475.15,425Z"/><path class="cls-1" d="M110.55,204c2.39-8.88,4-17.54,7.06-25.7,6.84-18.54,20.34-30.68,38.71-37.42,16.27-6,31.13-14.13,43.19-26.79C206,107.23,210.23,99,214,90.47a27.67,27.67,0,0,1,2-3.76c-1.13,11.57-2.76,23-8.56,33.3-9.4,16.73-24.11,26.79-41.64,33.38-4.16,1.56-8.34,3.13-12.36,5-14.62,6.93-20.78,20.28-25.06,34.58-2.35,7.86-3.2,16.18-4.73,24.34-5.11.31-10.78.28-16.34,1.06-13.13,1.82-21.81,9.09-26.14,21.8-4.77,14-5.92,28.46-6.21,43.08-.59,29.88-1,59.76-1.83,89.64A151,151,0,0,1,71,397.72c-3.46,17.79-14.73,27.79-34.1,28,3-2.61,5.83-4.92,8.55-7.31A38.82,38.82,0,0,0,58.68,391.6c1.21-15.37,1.86-30.79,2.21-46.2.52-23.26.4-46.52.89-69.77.31-14.36,1.8-28.63,7.11-42.18S83.4,210.21,97.48,205.9C101.88,204.55,106.68,204.49,110.55,204Z"/><path class="cls-1" d="M274.79,349.69l14.48,14.9,15.05-15.43,11.59,12-15,14.94L316.36,391,304.52,402.8l-15.11-15.26c-5,5.11-10.08,10.24-15,15.17L263,391.07l15.12-14.49-15.78-15.34Z"/><path class="cls-1" d="M256.14,177.74H241.51c-4.8-13.59-15.63-19.17-29-15.23-6.51,1.91-10.48,6.28-12.29,12.55-.69,2.39-1.74,3-4,2.89-3.72-.16-7.44,0-11.15,0-.46-11.66,7.6-24.16,18.16-28,14.1-5.11,27.91-4.94,40.74,3.62,6.22,4.14,9,10.76,10.89,17.76C255.39,173.27,255.67,175.3,256.14,177.74Z"/><path class="cls-1" d="M347.61,202.51V178.19h22.32v24.32Z"/><path class="cls-1" d="M231.57,202.48H209.41V178.27h22.16Z"/></svg>